<svg width="92" height="44" viewBox="0 0 92 44" fill="none" xmlns="http://www.w3.org/2000/svg">
<path d="M8.73 17.012H3.006L1.908 20H0.576L5.166 7.58H6.588L11.16 20H9.828L8.73 17.012ZM8.352 15.968L5.868 9.164L3.384 15.968H8.352ZM12.6062 15.068C12.6062 14.06 12.8102 13.178 13.2182 12.422C13.6262 11.654 14.1842 11.066 14.8922 10.658C15.6122 10.238 16.4222 10.028 17.3222 10.028C18.2462 10.028 19.0502 10.25 19.7342 10.694C20.4182 11.126 20.9042 11.672 21.1922 12.332V10.172H22.4522V24.644H21.1922V17.84C20.9042 18.5 20.4122 19.052 19.7162 19.496C19.0322 19.928 18.2222 20.144 17.2862 20.144C16.3982 20.144 15.5942 19.934 14.8742 19.514C14.1662 19.094 13.6082 18.5 13.2002 17.732C12.8042 16.964 12.6062 16.076 12.6062 15.068ZM21.1922 15.086C21.1922 14.294 21.0302 13.598 20.7062 12.998C20.3822 12.398 19.9382 11.936 19.3742 11.612C18.8222 11.288 18.2102 11.126 17.5382 11.126C16.8422 11.126 16.2182 11.282 15.6662 11.594C15.1142 11.906 14.6762 12.362 14.3522 12.962C14.0402 13.55 13.8842 14.252 13.8842 15.068C13.8842 15.872 14.0402 16.58 14.3522 17.192C14.6762 17.792 15.1142 18.254 15.6662 18.578C16.2182 18.89 16.8422 19.046 17.5382 19.046C18.2102 19.046 18.8222 18.884 19.3742 18.56C19.9382 18.236 20.3822 17.774 20.7062 17.174C21.0302 16.574 21.1922 15.878 21.1922 15.086ZM33.8427 10.172V20H32.5827V18.272C32.2947 18.884 31.8507 19.352 31.2507 19.676C30.6507 20 29.9787 20.162 29.2347 20.162C28.0587 20.162 27.0987 19.802 26.3547 19.082C25.6107 18.35 25.2387 17.294 25.2387 15.914V10.172H26.4807V15.77C26.4807 16.838 26.7447 17.654 27.2727 18.218C27.8127 18.782 28.5447 19.064 29.4687 19.064C30.4167 19.064 31.1727 18.764 31.7367 18.164C32.3007 17.564 32.5827 16.682 32.5827 15.518V10.172H33.8427ZM45.6113 14.582C45.6113 15.014 45.5993 15.344 45.5753 15.572H37.4213C37.4573 16.316 37.6373 16.952 37.9613 17.48C38.2853 18.008 38.7113 18.41 39.2393 18.686C39.7673 18.95 40.3433 19.082 40.9673 19.082C41.7833 19.082 42.4673 18.884 43.0193 18.488C43.5833 18.092 43.9553 17.558 44.1353 16.886H45.4673C45.2273 17.846 44.7113 18.632 43.9193 19.244C43.1393 19.844 42.1553 20.144 40.9673 20.144C40.0433 20.144 39.2153 19.94 38.4833 19.532C37.7513 19.112 37.1753 18.524 36.7553 17.768C36.3473 17 36.1433 16.106 36.1433 15.086C36.1433 14.066 36.3473 13.172 36.7553 12.404C37.1633 11.636 37.7333 11.048 38.4653 10.64C39.1973 10.232 40.0313 10.028 40.9673 10.028C41.9033 10.028 42.7193 10.232 43.4153 10.64C44.1233 11.048 44.6633 11.6 45.0353 12.296C45.4193 12.98 45.6113 13.742 45.6113 14.582ZM44.3333 14.546C44.3453 13.814 44.1953 13.19 43.8833 12.674C43.5833 12.158 43.1693 11.768 42.6413 11.504C42.1133 11.24 41.5373 11.108 40.9133 11.108C39.9773 11.108 39.1793 11.408 38.5193 12.008C37.8593 12.608 37.4933 13.454 37.4213 14.546H44.3333ZM49.1766 6.68V20H47.9166V6.68H49.1766ZM60.9218 14.582C60.9218 15.014 60.9098 15.344 60.8858 15.572H52.7318C52.7678 16.316 52.9478 16.952 53.2718 17.48C53.5958 18.008 54.0218 18.41 54.5498 18.686C55.0778 18.95 55.6538 19.082 56.2778 19.082C57.0938 19.082 57.7778 18.884 58.3298 18.488C58.8938 18.092 59.2658 17.558 59.4458 16.886H60.7778C60.5378 17.846 60.0218 18.632 59.2298 19.244C58.4498 19.844 57.4658 20.144 56.2778 20.144C55.3538 20.144 54.5258 19.94 53.7938 19.532C53.0618 19.112 52.4858 18.524 52.0658 17.768C51.6578 17 51.4538 16.106 51.4538 15.086C51.4538 14.066 51.6578 13.172 52.0658 12.404C52.4738 11.636 53.0438 11.048 53.7758 10.64C54.5078 10.232 55.3418 10.028 56.2778 10.028C57.2138 10.028 58.0298 10.232 58.7258 10.64C59.4338 11.048 59.9738 11.6 60.3458 12.296C60.7298 12.98 60.9218 13.742 60.9218 14.582ZM59.6438 14.546C59.6558 13.814 59.5058 13.19 59.1938 12.674C58.8938 12.158 58.4798 11.768 57.9518 11.504C57.4238 11.24 56.8478 11.108 56.2238 11.108C55.2878 11.108 54.4898 11.408 53.8298 12.008C53.1698 12.608 52.8038 13.454 52.7318 14.546H59.6438Z" fill="#0F172A"/>
<path d="M60.848 37L57.968 31.996H56.402V37H54.35V24.49H58.67C59.63 24.49 60.44 24.658 61.1 24.994C61.772 25.33 62.27 25.78 62.594 26.344C62.93 26.908 63.098 27.538 63.098 28.234C63.098 29.05 62.858 29.794 62.378 30.466C61.91 31.126 61.184 31.576 60.2 31.816L63.296 37H60.848ZM56.402 30.358H58.67C59.438 30.358 60.014 30.166 60.398 29.782C60.794 29.398 60.992 28.882 60.992 28.234C60.992 27.586 60.8 27.082 60.416 26.722C60.032 26.35 59.45 26.164 58.67 26.164H56.402V30.358ZM70.025 37.162C69.089 37.162 68.243 36.952 67.487 36.532C66.731 36.1 66.137 35.5 65.705 34.732C65.273 33.952 65.057 33.052 65.057 32.032C65.057 31.024 65.279 30.13 65.723 29.35C66.167 28.57 66.773 27.97 67.541 27.55C68.309 27.13 69.167 26.92 70.115 26.92C71.063 26.92 71.921 27.13 72.689 27.55C73.457 27.97 74.063 28.57 74.507 29.35C74.951 30.13 75.173 31.024 75.173 32.032C75.173 33.04 74.945 33.934 74.489 34.714C74.033 35.494 73.409 36.1 72.617 36.532C71.837 36.952 70.973 37.162 70.025 37.162ZM70.025 35.38C70.553 35.38 71.045 35.254 71.501 35.002C71.969 34.75 72.347 34.372 72.635 33.868C72.923 33.364 73.067 32.752 73.067 32.032C73.067 31.312 72.929 30.706 72.653 30.214C72.377 29.71 72.011 29.332 71.555 29.08C71.099 28.828 70.607 28.702 70.079 28.702C69.551 28.702 69.059 28.828 68.603 29.08C68.159 29.332 67.805 29.71 67.541 30.214C67.277 30.706 67.145 31.312 67.145 32.032C67.145 33.1 67.415 33.928 67.955 34.516C68.507 35.092 69.197 35.38 70.025 35.38ZM79.2536 23.68V37H77.2016V23.68H79.2536ZM91.0377 31.798C91.0377 32.17 91.0137 32.506 90.9657 32.806H83.3877C83.4477 33.598 83.7417 34.234 84.2697 34.714C84.7977 35.194 85.4457 35.434 86.2137 35.434C87.3177 35.434 88.0977 34.972 88.5537 34.048H90.7677C90.4677 34.96 89.9217 35.71 89.1297 36.298C88.3497 36.874 87.3777 37.162 86.2137 37.162C85.2657 37.162 84.4137 36.952 83.6577 36.532C82.9137 36.1 82.3257 35.5 81.8937 34.732C81.4737 33.952 81.2637 33.052 81.2637 32.032C81.2637 31.012 81.4677 30.118 81.8757 29.35C82.2957 28.57 82.8777 27.97 83.6217 27.55C84.3777 27.13 85.2417 26.92 86.2137 26.92C87.1497 26.92 87.9837 27.124 88.7157 27.532C89.4477 27.94 90.0177 28.516 90.4257 29.26C90.8337 29.992 91.0377 30.838 91.0377 31.798ZM88.8957 31.15C88.8837 30.394 88.6137 29.788 88.0857 29.332C87.5577 28.876 86.9037 28.648 86.1237 28.648C85.4157 28.648 84.8097 28.876 84.3057 29.332C83.8017 29.776 83.5017 30.382 83.4057 31.15H88.8957ZM88.0137 24.418L84.0357 26.38V24.868L88.0137 22.672V24.418Z" fill="#6246EA"/>
</svg>
